# xmcd CD database file
#
# Track frame offsets:
#	150
#	20197
#	40454
#	54888
#	73261
#	86514
#	101480
#	116380
#	137724
#	153143
#	167807
#	180649
#	205802
#
# Disc length: 3000 seconds
#
# Revision: 0
# Processed by: cddbd v1.5.2PL0 Copyright (c) Steve Scherf et al.
# Submitted via: CDex 1.70beta2
#
DISCID=ad0bb60d
DTITLE=The Insomniacs - Left Coast Blues
DYEAR=2007
DGENRE=Blues
TTITLE0=Stick Around
TTITLE1=Serves Me Right
TTITLE2=Watch Your Mouth
TTITLE3=Stuttering Blues
TTITLE4=Crime Scene
TTITLE5=Wrong Kind Of Love
TTITLE6=I'll Treat You Right
TTITLE7=I'm Not Sorry
TTITLE8=Shake The Chandelier
TTITLE9=I Got Money
TTITLE10=Be Quiet
TTITLE11=Serves Me Right (Live)
TTITLE12=No Wine, no Women (Live)
EXTD=YEAR: 2007
EXTT0=
EXTT1=
EXTT2=
EXTT3=
EXTT4=
EXTT5=
EXTT6=
EXTT7=
EXTT8=
EXTT9=
EXTT10=
EXTT11=
EXTT12=
PLAYORDER=
